<svg width="45" height="44" viewBox="0 0 45 44" fill="none" xmlns="http://www.w3.org/2000/svg">
<path d="M30.5 16H14.5C13.3954 16 12.5 16.8954 12.5 18V26C12.5 27.1046 13.3954 28 14.5 28H30.5C31.6046 28 32.5 27.1046 32.5 26V18C32.5 16.8954 31.6046 16 30.5 16Z" stroke="black" stroke-width="2" stroke-linecap="round" stroke-linejoin="round"/>
<path d="M22.5 24C23.6046 24 24.5 23.1046 24.5 22C24.5 20.8954 23.6046 20 22.5 20C21.3954 20 20.5 20.8954 20.5 22C20.5 23.1046 21.3954 24 22.5 24Z" stroke="black" stroke-width="2" stroke-linecap="round" stroke-linejoin="round"/>
<path d="M16.5 22H16.51M28.5 22H28.51" stroke="black" stroke-width="2" stroke-linecap="round" stroke-linejoin="round"/>
</svg>
