<svg width="44" height="42" viewBox="0 0 44 42" fill="none" xmlns="http://www.w3.org/2000/svg">
<path d="M24 25H19M29 25H32V21.85C32.0007 21.6121 31.9165 21.3816 31.7625 21.2002C31.6085 21.0187 31.3949 20.8981 31.16 20.86L26 20L23.3 16.4C23.2069 16.2759 23.0861 16.175 22.9472 16.1056C22.8084 16.0362 22.6552 16 22.5 16H15.24C14.8673 15.9975 14.5012 16.0991 14.1832 16.2934C13.8651 16.4878 13.6077 16.7672 13.44 17.1L12.64 18.73C12.2201 19.5647 12.001 20.4858 12 21.42V25H14" stroke="black" stroke-width="2" stroke-linecap="round" stroke-linejoin="round"/>
<path d="M16.5 28C17.8807 28 19 26.8807 19 25.5C19 24.1193 17.8807 23 16.5 23C15.1193 23 14 24.1193 14 25.5C14 26.8807 15.1193 28 16.5 28Z" stroke="black" stroke-width="2" stroke-linecap="round" stroke-linejoin="round"/>
<path d="M26.5 28C27.8807 28 29 26.8807 29 25.5C29 24.1193 27.8807 23 26.5 23C25.1193 23 24 24.1193 24 25.5C24 26.8807 25.1193 28 26.5 28Z" stroke="black" stroke-width="2" stroke-linecap="round" stroke-linejoin="round"/>
</svg>
