<svg width="45" height="44" viewBox="0 0 45 44" fill="none" xmlns="http://www.w3.org/2000/svg">
<path d="M31.7099 25.8901C31.0737 27.3946 30.0787 28.7203 28.8118 29.7514C27.5449 30.7825 26.0447 31.4875 24.4424 31.8049C22.84 32.1222 21.1843 32.0422 19.6201 31.5719C18.0558 31.1015 16.6305 30.2551 15.4689 29.1067C14.3073 27.9583 13.4447 26.5428 12.9565 24.984C12.4684 23.4252 12.3695 21.7706 12.6685 20.1647C12.9675 18.5589 13.6554 17.0507 14.672 15.7721C15.6885 14.4935 17.0028 13.4834 18.4999 12.8301" stroke="black" stroke-width="2" stroke-linecap="round" stroke-linejoin="round"/>
<path d="M32.5 22C32.5 20.6868 32.2413 19.3864 31.7388 18.1732C31.2362 16.9599 30.4997 15.8575 29.5711 14.9289C28.6425 14.0003 27.5401 13.2638 26.3268 12.7612C25.1136 12.2587 23.8132 12 22.5 12V22H32.5Z" stroke="black" stroke-width="2" stroke-linecap="round" stroke-linejoin="round"/>
</svg>
