<svg width="44" height="42" viewBox="0 0 44 42" fill="none" xmlns="http://www.w3.org/2000/svg">
<path d="M12 15C12.6 15.5 13.2 16 14.5 16C17 16 17 14 19.5 14C22.1 14 21.9 16 24.5 16C27 16 27 14 29.5 14C30.8 14 31.4 14.5 32 15" stroke="black" stroke-width="2" stroke-linecap="round" stroke-linejoin="round"/>
<path d="M12 21C12.6 21.5 13.2 22 14.5 22C17 22 17 20 19.5 20C22.1 20 21.9 22 24.5 22C27 22 27 20 29.5 20C30.8 20 31.4 20.5 32 21" stroke="black" stroke-width="2" stroke-linecap="round" stroke-linejoin="round"/>
<path d="M12 27C12.6 27.5 13.2 28 14.5 28C17 28 17 26 19.5 26C22.1 26 21.9 28 24.5 28C27 28 27 26 29.5 26C30.8 26 31.4 26.5 32 27" stroke="black" stroke-width="2" stroke-linecap="round" stroke-linejoin="round"/>
</svg>
