<svg width="45" height="44" viewBox="0 0 45 44" fill="none" xmlns="http://www.w3.org/2000/svg">
<path d="M16.8335 32V14C16.8335 13.73 16.8335 13.45 16.9035 13.18C16.9647 12.9106 17.1002 12.6638 17.2947 12.4676C17.4891 12.2714 17.7347 12.1336 18.0035 12.07C18.2935 12 19.5635 12 19.8335 12H26.8335C27.1035 12 27.3835 12 27.6535 12.07C27.9229 12.1312 28.1697 12.2667 28.3659 12.4612C28.5621 12.6556 28.6999 12.9012 28.7635 13.17C28.8335 13.45 28.8335 13.73 28.8335 14V32H16.8335Z" stroke="black" stroke-width="2" stroke-linecap="round" stroke-linejoin="round"/>
<path d="M12.8335 24V30C12.8335 31.1 13.7335 32 14.8335 32H16.8335V22H14.8335C14.5635 22 14.2835 22 14.0135 22.07C13.7435 22.14 13.4935 22.27 13.2935 22.47C13.1035 22.66 12.9735 22.91 12.9035 23.18C12.8471 23.4495 12.8236 23.7248 12.8335 24Z" stroke="black" stroke-width="2" stroke-linecap="round" stroke-linejoin="round"/>
<path d="M31.6535 19.0698C31.384 19.0133 31.1087 18.9898 30.8335 18.9998H28.8335V31.9998H30.8335C31.3639 31.9998 31.8726 31.7891 32.2477 31.414C32.6228 31.0389 32.8335 30.5302 32.8335 29.9998V20.9998C32.8335 20.7198 32.8335 20.4498 32.7635 20.1798C32.6935 19.9098 32.5635 19.6598 32.3635 19.4598C32.1735 19.2698 31.9235 19.1398 31.6535 19.0698Z" stroke="black" stroke-width="2" stroke-linecap="round" stroke-linejoin="round"/>
<path d="M20.8335 16H24.8335" stroke="black" stroke-width="2" stroke-linecap="round" stroke-linejoin="round"/>
<path d="M20.8335 20H24.8335" stroke="black" stroke-width="2" stroke-linecap="round" stroke-linejoin="round"/>
<path d="M20.8335 24H24.8335" stroke="black" stroke-width="2" stroke-linecap="round" stroke-linejoin="round"/>
<path d="M20.8335 28H24.8335" stroke="black" stroke-width="2" stroke-linecap="round" stroke-linejoin="round"/>
</svg>
